P1
8 10
00000000
00010000
00010000
00010000
00010000
00010000
00000000
00010000
00000000
00000000
