P1
8 10
00000000
00111000
01000100
10000010
10000010
10000010
01000100
00111000
00000000
00000000
