P1
8 10
00000000
00010000
00110000
01010000
00010000
00010000
00010000
01111100
00000000
00000000
