P1
8 10
00000000
01111100
10000010
00000010
00011100
01100000
10000000
11111110
00000000
00000000
