P1
8 10
00000000
11111110
00000100
00001000
00011100
00000010
10000010
01111100
00000000
00000000
