P1
8 10
00000000
00010000
00101000
01000100
10000010
11111110
10000010
10000010
00000000
00000000
