P1
8 10
00000000
11111100
01000010
01000010
01111100
01000010
01000010
11111100
00000000
00000000
