P1
8 10
00000000
10000000
10000000
10111100
11000010
10000010
11000010
10111100
00000000
00000000
