P1
8 10
00000000
00111100
01000010
10000000
10000000
10000000
01000010
00111100
00000000
00000000
