P1
8 10
00000000
00000000
00000000
01111100
10000010
10000000
10000000
01111110
00000000
00000000
