P1
8 10
00000000
11111000
01000100
01000010
01000010
01000010
01000100
11111000
00000000
00000000
