P1
8 10
00000000
00000010
00000010
01111010
10000110
10000010
10000110
01111010
00000000
00000000
